<svg xmlns="http://www.w3.org/2000/svg" viewBox="0 0 800 480" fill="none">
  <rect width="800" height="480" fill="#081018"/>
  <rect x="24" y="24" width="752" height="432" rx="16" fill="#0F172A" stroke="#334155"/>
  <rect x="40" y="40" width="180" height="400" rx="12" fill="#111827" stroke="#1E293B"/>
  <rect x="56" y="60" width="120" height="10" rx="4" fill="#22D3EE"/>
  <rect x="56" y="84" width="88" height="8" rx="3" fill="#475569"/>
  <rect x="56" y="112" width="148" height="36" rx="8" fill="#1E293B" stroke="#334155"/>
  <rect x="56" y="160" width="148" height="36" rx="8" fill="#1E293B" stroke="#334155"/>
  <rect x="56" y="208" width="148" height="36" rx="8" fill="#164E63" stroke="#22D3EE" stroke-opacity="0.4"/>
  <rect x="240" y="40" width="520" height="56" rx="10" fill="#111827" stroke="#1E293B"/>
  <rect x="256" y="58" width="140" height="12" rx="4" fill="#94A3B8"/>
  <rect x="620" y="54" width="88" height="20" rx="6" fill="#22D3EE" fill-opacity="0.25" stroke="#22D3EE" stroke-opacity="0.5"/>
  <rect x="240" y="112" width="340" height="328" rx="12" fill="#111827" stroke="#1E293B"/>
  <circle cx="320" cy="210" r="18" fill="#22D3EE" fill-opacity="0.8"/>
  <circle cx="410" cy="250" r="18" fill="#38BDF8" fill-opacity="0.7"/>
  <circle cx="500" cy="190" r="18" fill="#0891B2" fill-opacity="0.8"/>
  <path d="M320 210L410 250L500 190" stroke="#64748B" stroke-width="3"/>
  <rect x="300" y="300" width="220" height="100" rx="10" fill="#0B1220" stroke="#334155"/>
  <rect x="316" y="318" width="80" height="8" rx="3" fill="#94A3B8"/>
  <rect x="316" y="336" width="120" height="6" rx="3" fill="#475569"/>
  <rect x="596" y="112" width="164" height="156" rx="12" fill="#111827" stroke="#1E293B"/>
  <rect x="612" y="132" width="96" height="10" rx="4" fill="#94A3B8"/>
  <rect x="612" y="152" width="128" height="8" rx="3" fill="#475569"/>
  <rect x="612" y="170" width="112" height="8" rx="3" fill="#475569"/>
  <rect x="596" y="284" width="164" height="156" rx="12" fill="#111827" stroke="#1E293B"/>
  <rect x="612" y="304" width="96" height="10" rx="4" fill="#94A3B8"/>
  <rect x="612" y="324" width="128" height="8" rx="3" fill="#475569"/>
  <text x="40" y="468" fill="#64748B" font-family="Inter, sans-serif" font-size="16">Netgear Device Manager — enterprise dashboard mockup</text>
</svg>
