<svg xmlns="http://www.w3.org/2000/svg" viewBox="0 0 800 480" fill="none">
  <rect width="800" height="480" fill="#081018"/>
  <rect x="24" y="24" width="752" height="432" rx="16" fill="#0F172A" stroke="#334155"/>
  <rect x="40" y="40" width="340" height="400" rx="12" fill="#111827" stroke="#1E293B"/>
  <rect x="56" y="60" width="180" height="12" rx="4" fill="#14B8A6"/>
  <rect x="56" y="88" width="240" height="10" rx="4" fill="#94A3B8"/>
  <rect x="56" y="112" width="308" height="120" rx="10" fill="#1E293B" stroke="#334155"/>
  <rect x="72" y="132" width="120" height="10" rx="4" fill="#5EEAD4"/>
  <rect x="72" y="152" width="220" height="8" rx="3" fill="#475569"/>
  <rect x="72" y="172" width="180" height="8" rx="3" fill="#475569"/>
  <rect x="56" y="248" width="148" height="72" rx="10" fill="#134E4A" stroke="#14B8A6" stroke-opacity="0.4"/>
  <rect x="216" y="248" width="148" height="72" rx="10" fill="#1E293B" stroke="#334155"/>
  <rect x="56" y="336" width="308" height="88" rx="10" fill="#0B1220" stroke="#334155"/>
  <rect x="400" y="40" width="360" height="188" rx="12" fill="#111827" stroke="#1E293B"/>
  <rect x="416" y="60" width="140" height="10" rx="4" fill="#94A3B8"/>
  <rect x="416" y="84" width="328" height="12" rx="4" fill="#475569"/>
  <rect x="416" y="108" width="280" height="12" rx="4" fill="#475569"/>
  <rect x="416" y="132" width="300" height="12" rx="4" fill="#475569"/>
  <rect x="400" y="244" width="360" height="196" rx="12" fill="#111827" stroke="#1E293B"/>
  <rect x="416" y="264" width="140" height="10" rx="4" fill="#94A3B8"/>
  <rect x="416" y="288" width="328" height="56" rx="8" fill="#1E293B" stroke="#334155"/>
  <rect x="416" y="356" width="328" height="56" rx="8" fill="#1E293B" stroke="#334155"/>
  <text x="40" y="468" fill="#64748B" font-family="Inter, sans-serif" font-size="16">Referral Reactor — B2B platform mockup</text>
</svg>
