<svg xmlns="http://www.w3.org/2000/svg" viewBox="0 0 120 120" fill="none">
  <rect width="120" height="120" rx="24" fill="#0F172A"/>
  <path d="M24 88c8-8 18-12 36-12s28 4 36 12" stroke="#334155" stroke-width="2"/>
  <path d="M34 34c0-6 5-10 11-10h30c6 0 11 4 11 10v54H34V34z" fill="#111827" stroke="#334155" stroke-width="2"/>
  <path d="M45 38h30M45 50h24M45 62h28M45 74h20" stroke="#64748B" stroke-width="2.5" stroke-linecap="round"/>
  <path d="M60 24v8" stroke="#22D3EE" stroke-width="3" stroke-linecap="round"/>
  <circle cx="60" cy="20" r="4" fill="#22D3EE"/>
  <path d="M52 88c4 6 12 10 20 10s16-4 20-10" stroke="#22D3EE" stroke-width="2" stroke-linecap="round"/>
  <text x="46" y="58" fill="#22D3EE" font-size="10" font-family="Georgia, serif">¤</text>
</svg>
